<?xml version="1.0" encoding="UTF-8"?>
<!DOCTYPE xmeml>
<xmeml version="4">
	<sequence id="sequence-2" TL.SQAudioVisibleBase="0" TL.SQVideoVisibleBase="0" TL.SQVisibleBaseTime="0" TL.SQAVDividerPosition="0.5" TL.SQHideShyTracks="0" TL.SQHeaderWidth="184" Monitor.ProgramZoomOut="8454478032000" Monitor.ProgramZoomIn="0" TL.SQTimePerPixel="0.044975830078125001" MZ.EditLine="0" MZ.Sequence.PreviewFrameSizeHeight="1080" MZ.Sequence.PreviewFrameSizeWidth="1920" MZ.Sequence.AudioTimeDisplayFormat="200" MZ.Sequence.PreviewRenderingClassID="1297106761" MZ.Sequence.PreviewRenderingPresetCodec="1297107278" MZ.Sequence.PreviewRenderingPresetPath="EncoderPresets/SequencePreview/cc7991f5-c236-4db1-957e-2c71f924e81c/I-Frame Only MPEG.epr" MZ.Sequence.PreviewUseMaxRenderQuality="false" MZ.Sequence.PreviewUseMaxBitDepth="false" MZ.Sequence.EditingModeGUID="cc7991f5-c236-4db1-957e-2c71f924e81c" MZ.Sequence.VideoTimeDisplayFormat="110" MZ.WorkOutPoint="8454478032000" MZ.WorkInPoint="0" explodedTracks="true">
		<uuid>4823cc49-134d-4df7-ac4d-655b3d4c4aba</uuid>
		<duration>798</duration>
		<rate>
			<timebase>24</timebase>
			<ntsc>TRUE</ntsc>
		</rate>
		<name>DSC_8356</name>
		<media>
			<video>
				<format>
					<samplecharacteristics>
						<rate>
							<timebase>24</timebase>
							<ntsc>TRUE</ntsc>
						</rate>
						<codec>
							<name>Apple ProRes 422</name>
							<appspecificdata>
								<appname>Final Cut Pro</appname>
								<appmanufacturer>Apple Inc.</appmanufacturer>
								<appversion>7.0</appversion>
								<data>
									<qtcodec>
										<codecname>Apple ProRes 422</codecname>
										<codectypename>Apple ProRes 422</codectypename>
										<codectypecode>apcn</codectypecode>
										<codecvendorcode>appl</codecvendorcode>
										<spatialquality>1024</spatialquality>
										<temporalquality>0</temporalquality>
										<keyframerate>0</keyframerate>
										<datarate>0</datarate>
									</qtcodec>
								</data>
							</appspecificdata>
						</codec>
						<width>1920</width>
						<height>1080</height>
						<anamorphic>FALSE</anamorphic>
						<pixelaspectratio>square</pixelaspectratio>
						<fielddominance>none</fielddominance>
						<colordepth>24</colordepth>
					</samplecharacteristics>
				</format>
				<track TL.SQTrackShy="0" TL.SQTrackExpandedHeight="25" TL.SQTrackExpanded="0" MZ.TrackTargeted="1">
					<clipitem id="clipitem-14" frameBlend="FALSE">
						<masterclipid>masterclip-10</masterclipid>
						<name>DSC_8365.MOV</name>
						<enabled>TRUE</enabled>
						<duration>360</duration>
						<rate>
							<timebase>24</timebase>
							<ntsc>TRUE</ntsc>
						</rate>
						<start>0</start>
						<end>33</end>
						<in>16</in>
						<out>49</out>
						<pproTicksIn>169513344000</pproTicksIn>
						<pproTicksOut>519134616000</pproTicksOut>
						<alphatype>black</alphatype>
						<pixelaspectratio>square</pixelaspectratio>
						<anamorphic>FALSE</anamorphic>
						<file id="file-10">
							<name>DSC_8365.MOV</name>
							<pathurl>file://localhost/Users/linnpersson/Pictures/Bilder-bibliotek.photoslibrary/Masters/2016/01/31/20160131-151434/DSC_8365.MOV</pathurl>
							<rate>
								<timebase>24</timebase>
								<ntsc>TRUE</ntsc>
							</rate>
							<duration>360</duration>
							<timecode>
								<rate>
									<timebase>24</timebase>
									<ntsc>TRUE</ntsc>
								</rate>
								<string>00:00:00:00</string>
								<frame>0</frame>
								<displayformat>NDF</displayformat>
								<reel>
									<name></name>
								</reel>
							</timecode>
							<media>
								<video>
									<samplecharacteristics>
										<rate>
											<timebase>24</timebase>
											<ntsc>TRUE</ntsc>
										</rate>
										<width>1920</width>
										<height>1080</height>
										<anamorphic>FALSE</anamorphic>
										<pixelaspectratio>square</pixelaspectratio>
										<fielddominance>none</fielddominance>
									</samplecharacteristics>
								</video>
								<audio>
									<samplecharacteristics>
										<depth>16</depth>
										<samplerate>48000</samplerate>
									</samplecharacteristics>
									<channelcount>2</channelcount>
								</audio>
							</media>
						</file>
						<logginginfo>
							<description></description>
							<scene></scene>
							<shottake></shottake>
							<lognote></lognote>
						</logginginfo>
						<labels>
							<label2>Iris</label2>
						</labels>
					</clipitem>
					<clipitem id="clipitem-15" frameBlend="FALSE">
						<masterclipid>masterclip-11</masterclipid>
						<name>DSC_8354.MOV</name>
						<enabled>TRUE</enabled>
						<duration>477</duration>
						<rate>
							<timebase>24</timebase>
							<ntsc>TRUE</ntsc>
						</rate>
						<start>33</start>
						<end>57</end>
						<in>0</in>
						<out>24</out>
						<pproTicksIn>0</pproTicksIn>
						<pproTicksOut>254270016000</pproTicksOut>
						<alphatype>black</alphatype>
						<pixelaspectratio>square</pixelaspectratio>
						<anamorphic>FALSE</anamorphic>
						<file id="file-11">
							<name>DSC_8354.MOV</name>
							<pathurl>file://localhost/Users/linnpersson/Pictures/Bilder-bibliotek.photoslibrary/Masters/2016/01/31/20160131-151434/DSC_8354.MOV</pathurl>
							<rate>
								<timebase>24</timebase>
								<ntsc>TRUE</ntsc>
							</rate>
							<duration>477</duration>
							<timecode>
								<rate>
									<timebase>24</timebase>
									<ntsc>TRUE</ntsc>
								</rate>
								<string>00:00:00:00</string>
								<frame>0</frame>
								<displayformat>NDF</displayformat>
								<reel>
									<name></name>
								</reel>
							</timecode>
							<media>
								<video>
									<samplecharacteristics>
										<rate>
											<timebase>24</timebase>
											<ntsc>TRUE</ntsc>
										</rate>
										<width>1920</width>
										<height>1080</height>
										<anamorphic>FALSE</anamorphic>
										<pixelaspectratio>square</pixelaspectratio>
										<fielddominance>none</fielddominance>
									</samplecharacteristics>
								</video>
								<audio>
									<samplecharacteristics>
										<depth>16</depth>
										<samplerate>48000</samplerate>
									</samplecharacteristics>
									<channelcount>2</channelcount>
								</audio>
							</media>
						</file>
						<logginginfo>
							<description></description>
							<scene></scene>
							<shottake></shottake>
							<lognote></lognote>
						</logginginfo>
						<labels>
							<label2>Iris</label2>
						</labels>
					</clipitem>
					<clipitem id="clipitem-16" frameBlend="FALSE">
						<masterclipid>masterclip-12</masterclipid>
						<name>DSC_8356.MOV</name>
						<enabled>TRUE</enabled>
						<duration>867</duration>
						<rate>
							<timebase>24</timebase>
							<ntsc>TRUE</ntsc>
						</rate>
						<start>57</start>
						<end>95</end>
						<in>211</in>
						<out>249</out>
						<pproTicksIn>2235457224000</pproTicksIn>
						<pproTicksOut>2638051416000</pproTicksOut>
						<alphatype>black</alphatype>
						<pixelaspectratio>square</pixelaspectratio>
						<anamorphic>FALSE</anamorphic>
						<file id="file-12">
							<name>DSC_8356.MOV</name>
							<pathurl>file://localhost/Users/linnpersson/Pictures/Bilder-bibliotek.photoslibrary/Masters/2016/01/31/20160131-151434/DSC_8356.MOV</pathurl>
							<rate>
								<timebase>24</timebase>
								<ntsc>TRUE</ntsc>
							</rate>
							<duration>867</duration>
							<timecode>
								<rate>
									<timebase>24</timebase>
									<ntsc>TRUE</ntsc>
								</rate>
								<string>00:00:00:00</string>
								<frame>0</frame>
								<displayformat>NDF</displayformat>
								<reel>
									<name></name>
								</reel>
							</timecode>
							<media>
								<video>
									<samplecharacteristics>
										<rate>
											<timebase>24</timebase>
											<ntsc>TRUE</ntsc>
										</rate>
										<width>1920</width>
										<height>1080</height>
										<anamorphic>FALSE</anamorphic>
										<pixelaspectratio>square</pixelaspectratio>
										<fielddominance>none</fielddominance>
									</samplecharacteristics>
								</video>
								<audio>
									<samplecharacteristics>
										<depth>16</depth>
										<samplerate>48000</samplerate>
									</samplecharacteristics>
									<channelcount>2</channelcount>
								</audio>
							</media>
						</file>
						<link>
							<linkclipref>clipitem-16</linkclipref>
							<mediatype>video</mediatype>
							<trackindex>1</trackindex>
							<clipindex>3</clipindex>
						</link>
						<link>
							<linkclipref>clipitem-25</linkclipref>
							<mediatype>audio</mediatype>
							<trackindex>5</trackindex>
							<clipindex>1</clipindex>
							<groupindex>1</groupindex>
						</link>
						<link>
							<linkclipref>clipitem-26</linkclipref>
							<mediatype>audio</mediatype>
							<trackindex>6</trackindex>
							<clipindex>1</clipindex>
							<groupindex>1</groupindex>
						</link>
						<logginginfo>
							<description></description>
							<scene></scene>
							<shottake></shottake>
							<lognote></lognote>
						</logginginfo>
						<labels>
							<label2>Iris</label2>
						</labels>
					</clipitem>
					<clipitem id="clipitem-17" frameBlend="FALSE">
						<masterclipid>masterclip-13</masterclipid>
						<name>DSC_8370.MOV</name>
						<enabled>TRUE</enabled>
						<duration>363</duration>
						<rate>
							<timebase>24</timebase>
							<ntsc>TRUE</ntsc>
						</rate>
						<start>95</start>
						<end>157</end>
						<in>223</in>
						<out>285</out>
						<pproTicksIn>2362592232000</pproTicksIn>
						<pproTicksOut>3019456440000</pproTicksOut>
						<alphatype>black</alphatype>
						<pixelaspectratio>square</pixelaspectratio>
						<anamorphic>FALSE</anamorphic>
						<file id="file-13">
							<name>DSC_8370.MOV</name>
							<pathurl>file://localhost/Users/linnpersson/Pictures/Bilder-bibliotek.photoslibrary/Masters/2016/01/31/20160131-234229/DSC_8370.MOV</pathurl>
							<rate>
								<timebase>24</timebase>
								<ntsc>TRUE</ntsc>
							</rate>
							<duration>363</duration>
							<timecode>
								<rate>
									<timebase>24</timebase>
									<ntsc>TRUE</ntsc>
								</rate>
								<string>00:00:00:00</string>
								<frame>0</frame>
								<displayformat>NDF</displayformat>
								<reel>
									<name></name>
								</reel>
							</timecode>
							<media>
								<video>
									<samplecharacteristics>
										<rate>
											<timebase>24</timebase>
											<ntsc>TRUE</ntsc>
										</rate>
										<width>1920</width>
										<height>1080</height>
										<anamorphic>FALSE</anamorphic>
										<pixelaspectratio>square</pixelaspectratio>
										<fielddominance>none</fielddominance>
									</samplecharacteristics>
								</video>
								<audio>
									<samplecharacteristics>
										<depth>16</depth>
										<samplerate>48000</samplerate>
									</samplecharacteristics>
									<channelcount>2</channelcount>
								</audio>
							</media>
						</file>
							<filter>
								<effect>
									<name></name>
									<effectid>Lumetri</effectid>
									<effecttype>filter</effecttype>
									<mediatype>video</mediatype>
									<parameter authoringApp="PremierePro">
										<parameterid>1</parameterid>
										<name>File Path</name>
										<hash>63866a15-9327-e4cb-ff31-c9ea0000000e</hash>
										<value>/v4=</value>
									</parameter>
									<parameter authoringApp="PremierePro">
										<parameterid>3</parameterid>
										<name> </name>
										<IsTimeVarying>false</IsTimeVarying>
										<ParameterControlType>4</ParameterControlType>
										<LowerBound>false</LowerBound>
										<UpperBound>true</UpperBound>
										<value>-91445760000000000,true,0,0,0,0,0,0</value>
									</parameter>
									<parameter authoringApp="PremierePro">
										<parameterid>4</parameterid>
										<name> </name>
										<hash>63866a15-9327-e4cb-ff31-c9ea0000000e</hash>
									</parameter>
									<parameter authoringApp="PremierePro">
										<parameterid>5</parameterid>
										<name>Input LUT</name>
										<IsTimeVarying>false</IsTimeVarying>
										<ParameterControlType>7</ParameterControlType>
										<LowerBound>0</LowerBound>
										<UpperBound>998</UpperBound>
										<value>-91445760000000000,0,0,0,0,0,0,0</value>
									</parameter>
									<parameter authoringApp="PremierePro">
										<parameterid>7</parameterid>
										<name>Temperature</name>
										<IsTimeVarying>false</IsTimeVarying>
										<ParameterControlType>8</ParameterControlType>
										<LowerBound>-150</LowerBound>
										<UpperBound>150</UpperBound>
										<LowerUIBound>-100</LowerUIBound>
										<UpperUIBound>100</UpperUIBound>
										<value>-91445760000000000,0.,0,0,0,0,0,0</value>
									</parameter>
									<parameter authoringApp="PremierePro">
										<parameterid>8</parameterid>
										<name>Tint</name>
										<IsTimeVarying>false</IsTimeVarying>
										<ParameterControlType>8</ParameterControlType>
										<LowerBound>-150</LowerBound>
										<UpperBound>150</UpperBound>
										<LowerUIBound>-100</LowerUIBound>
										<UpperUIBound>100</UpperUIBound>
										<value>-91445760000000000,0.,0,0,0,0,0,0</value>
									</parameter>
									<parameter authoringApp="PremierePro">
										<parameterid>11</parameterid>
										<name>Exposure</name>
										<IsTimeVarying>false</IsTimeVarying>
										<ParameterControlType>8</ParameterControlType>
										<LowerBound>-7</LowerBound>
										<UpperBound>7</UpperBound>
										<LowerUIBound>-5</LowerUIBound>
										<UpperUIBound>5</UpperUIBound>
										<value>-91445760000000000,0.,0,0,0,0,0,0</value>
									</parameter>
									<parameter authoringApp="PremierePro">
										<parameterid>12</parameterid>
										<name>Contrast</name>
										<IsTimeVarying>false</IsTimeVarying>
										<ParameterControlType>8</ParameterControlType>
										<LowerBound>-150</LowerBound>
										<UpperBound>150</UpperBound>
										<LowerUIBound>-100</LowerUIBound>
										<UpperUIBound>100</UpperUIBound>
										<value>-91445760000000000,0.,0,0,0,0,0,0</value>
									</parameter>
									<parameter authoringApp="PremierePro">
										<parameterid>13</parameterid>
										<name>Highlights</name>
										<IsTimeVarying>false</IsTimeVarying>
										<ParameterControlType>8</ParameterControlType>
										<LowerBound>-150</LowerBound>
										<UpperBound>150</UpperBound>
										<LowerUIBound>-100</LowerUIBound>
										<UpperUIBound>100</UpperUIBound>
										<value>-91445760000000000,0.,0,0,0,0,0,0</value>
									</parameter>
									<parameter authoringApp="PremierePro">
										<parameterid>14</parameterid>
										<name>Shadows</name>
										<IsTimeVarying>false</IsTimeVarying>
										<ParameterControlType>8</ParameterControlType>
										<LowerBound>-150</LowerBound>
										<UpperBound>150</UpperBound>
										<LowerUIBound>-100</LowerUIBound>
										<UpperUIBound>100</UpperUIBound>
										<value>-91445760000000000,0.,0,0,0,0,0,0</value>
									</parameter>
									<parameter authoringApp="PremierePro">
										<parameterid>15</parameterid>
										<name>Whites</name>
										<IsTimeVarying>false</IsTimeVarying>
										<ParameterControlType>8</ParameterControlType>
										<LowerBound>-150</LowerBound>
										<UpperBound>150</UpperBound>
										<LowerUIBound>-100</LowerUIBound>
										<UpperUIBound>100</UpperUIBound>
										<value>-91445760000000000,0.,0,0,0,0,0,0</value>
									</parameter>
									<parameter authoringApp="PremierePro">
										<parameterid>16</parameterid>
										<name>Blacks</name>
										<IsTimeVarying>false</IsTimeVarying>
										<ParameterControlType>8</ParameterControlType>
										<LowerBound>-150</LowerBound>
										<UpperBound>150</UpperBound>
										<LowerUIBound>-100</LowerUIBound>
										<UpperUIBound>100</UpperUIBound>
										<value>-91445760000000000,0.,0,0,0,0,0,0</value>
									</parameter>
									<parameter authoringApp="PremierePro">
										<parameterid>20</parameterid>
										<name>Saturation</name>
										<IsTimeVarying>false</IsTimeVarying>
										<ParameterControlType>8</ParameterControlType>
										<LowerBound>0</LowerBound>
										<UpperBound>300</UpperBound>
										<UpperUIBound>200</UpperUIBound>
										<value>-91445760000000000,100.,0,0,0,0,0,0</value>
									</parameter>
									<parameter authoringApp="PremierePro">
										<parameterid>23</parameterid>
										<name> </name>
										<IsTimeVarying>false</IsTimeVarying>
										<ParameterControlType>4</ParameterControlType>
										<LowerBound>false</LowerBound>
										<UpperBound>true</UpperBound>
										<value>-91445760000000000,true,0,0,0,0,0,0</value>
									</parameter>
									<parameter authoringApp="PremierePro">
										<parameterid>24</parameterid>
										<name> </name>
										<hash>63866a15-9327-e4cb-ff31-c9ea0000000e</hash>
									</parameter>
									<parameter authoringApp="PremierePro">
										<parameterid>25</parameterid>
										<name>Look</name>
										<IsTimeVarying>false</IsTimeVarying>
										<ParameterControlType>7</ParameterControlType>
										<LowerBound>0</LowerBound>
										<UpperBound>998</UpperBound>
										<value>-91445760000000000,0,0,0,0,0,0,0</value>
									</parameter>
									<parameter authoringApp="PremierePro">
										<parameterid>26</parameterid>
										<name>Intensity</name>
										<IsTimeVarying>false</IsTimeVarying>
										<ParameterControlType>8</ParameterControlType>
										<LowerBound>0</LowerBound>
										<UpperBound>200</UpperBound>
										<value>-91445760000000000,100.,0,0,0,0,0,0</value>
									</parameter>
									<parameter authoringApp="PremierePro">
										<parameterid>28</parameterid>
										<name>Faded Film</name>
										<IsTimeVarying>false</IsTimeVarying>
										<ParameterControlType>8</ParameterControlType>
										<LowerBound>0</LowerBound>
										<UpperBound>150</UpperBound>
										<UpperUIBound>100</UpperUIBound>
										<value>-91445760000000000,0.,0,0,0,0,0,0</value>
									</parameter>
									<parameter authoringApp="PremierePro">
										<parameterid>29</parameterid>
										<name>Sharpen</name>
										<IsTimeVarying>false</IsTimeVarying>
										<ParameterControlType>8</ParameterControlType>
										<LowerBound>-100</LowerBound>
										<UpperBound>100</UpperBound>
										<value>-91445760000000000,0.,0,0,0,0,0,0</value>
									</parameter>
									<parameter authoringApp="PremierePro">
										<parameterid>30</parameterid>
										<name>Vibrance</name>
										<IsTimeVarying>false</IsTimeVarying>
										<ParameterControlType>8</ParameterControlType>
										<LowerBound>-100</LowerBound>
										<UpperBound>100</UpperBound>
										<value>-91445760000000000,0.,0,0,0,0,0,0</value>
									</parameter>
									<parameter authoringApp="PremierePro">
										<parameterid>31</parameterid>
										<name>Saturation</name>
										<IsTimeVarying>false</IsTimeVarying>
										<ParameterControlType>8</ParameterControlType>
										<LowerBound>0</LowerBound>
										<UpperBound>300</UpperBound>
										<UpperUIBound>200</UpperUIBound>
										<value>-91445760000000000,100.,0,0,0,0,0,0</value>
									</parameter>
									<parameter authoringApp="PremierePro">
										<parameterid>32</parameterid>
										<name></name>
										<hash>49d2fca5-ddd1-a393-0544-f6d80000002c</hash>
										<value>AAAAAAAAAAAAAAAAAAAAAAAAAAAAAAAAAAAAAAAAAAA=</value>
									</parameter>
									<parameter authoringApp="PremierePro">
										<parameterid>33</parameterid>
										<name>Tint Balance</name>
										<IsTimeVarying>false</IsTimeVarying>
										<ParameterControlType>8</ParameterControlType>
										<LowerBound>-150</LowerBound>
										<UpperBound>150</UpperBound>
										<LowerUIBound>-100</LowerUIBound>
										<UpperUIBound>100</UpperUIBound>
										<value>-91445760000000000,0.,0,0,0,0,0,0</value>
									</parameter>
									<parameter authoringApp="PremierePro">
										<parameterid>37</parameterid>
										<name> </name>
										<IsTimeVarying>false</IsTimeVarying>
										<ParameterControlType>4</ParameterControlType>
										<LowerBound>false</LowerBound>
										<UpperBound>true</UpperBound>
										<value>-91445760000000000,true,0,0,0,0,0,0</value>
									</parameter>
									<parameter authoringApp="PremierePro">
										<parameterid>39</parameterid>
										<name> </name>
										<hash>261f3840-e8cf-a8cd-fa5e-bac10000082c</hash>
										<value>AAAAAAIAAAAAAAAAAAAAAAAAAAAAAAAAAAAAAAAA8D8AAAAAAADwPwAAAAAAAAAAAAAAAAAAAAAAAAAAAAAAAAAAAAAAAAAAAAAAAAAAAAAAAAAAAAAAAAAAAAAAAAAAAAAAAAAAAAAAAAAAAAAAAAAAAAAAAAAAAAAAAAAAAAAAAAAAAAAAAAAAAAAAAAAAAAAAAAAAAAAAAAAAAAAAAAAAAAAAAAAAAAAAAAAAAAAAAAAAAAAAAAAAAAAAAAAAAAAAAAAAAAAAAAAAAAAAAAAAAAAAAAAAAAAAAAAAAAAAAAAAAAAAAAAAAAAAAAAAAAAAAAAAAAAAAAAAAAAAAAAAAAAAAAAAAAAAAAAAAAAAAAAAAAAAAAAAAAAAAAAAAAAAAAAAAAAAAAAAAAAAAAAAAAAAAAAAAAAAAAAAAAAAAAAAAAAAAAAAAAAAAAAAAAAAAAAAAAAAAAAAAAAAAAAAAAAAAAAAAAAAAAAAAAAAAAAAAAAAAAAAAAAAAAAAAAAAAAAAAAAAAAAAAAAAAAAAAAAAAAAAAAAAAAAAAAAAAAAAAAAAAAAAAAAAAAAAAAAAAAAAAAAAAAAAAAAAAAAAAAAAAAAAAAAAAAAAAAAAAAAAAAAAAAAAAAAAAAAAAAAAAAAAAAAAAAAAAAAAAAAAAAAAAAAAAAAAAAAAAAAAAAAAAAAAAAAAAAACAAAAAAAAAAAAAAAAAAAAAAAAAAAAAAAAAPA/AAAAAAAA8D8AAAAAAAAAAAAAAAAAAAAAAAAAAAAAAAAAAAAAAAAAAAAAAAAAAAAAAAAAAAAAAAAAAAAAAAAAAAAAAAAAAAAAAAAAAAAAAAAAAAAAAAAAAAAAAAAAAAAAAAAAAAAAAAAAAAAAAAAAAAAAAAAAAAAAAAAAAAAAAAAAAAAAAAAAAAAAAAAAAAAAAAAAAAAAAAAAAAAAAAAAAAAAAAAAAAAAAAAAAAAAAAAAAAAAAAAAAAAAAAAAAAAAAAAAAAAAAAAAAAAAAAAAAAAAAAAAAAAAAAAAAAAAAAAAAAAAAAAAAAAAAAAAAAAAAAAAAAAAAAAAAAAAAAAAAAAAAAAAAAAAAAAAAAAAAAAAAAAAAAAAAAAAAAAAAAAAAAAAAAAAAAAAAAAAAAAAAAAAAAAAAAAAAAAAAAAAAAAAAAAAAAAAAAAAAAAAAAAAAAAAAAAAAAAAAAAAAAAAAAAAAAAAAAAAAAAAAAAAAAAAAAAAAAAAAAAAAAAAAAAAAAAAAAAAAAAAAAAAAAAAAAAAAAAAAAAAAAAAAAAAAAAAAAAAAAAAAAAAAAAAAAAAAAAAAAAAAAAAAAAAAAAAAAAAAAAAAAAAAAAAAAAAAAAAAAAAAAAAAAAAAAAAAAAAAAAAAAAAAAAAAAAAAgAAAAAAAAAAAAAAAAAAAAAAAAAAAAAAAADwPwAAAAAAAPA/AAAAAAAAAAAAAAAAAAAAAAAAAAAAAAAAAAAAAAAAAAAAAAAAAAAAAAAAAAAAAAAAAAAAAAAAAAAAAAAAAAAAAAAAAAAAAAAAAAAAAAAAAAAAAAAAAAAAAAAAAAAAAAAAAAAAAAAAAAAAAAAAAAAAAAAAAAAAAAAAAAAAAAAAAAAAAAAAAAAAAAAAAAAAAAAAAAAAAAAAAAAAAAAAAAAAAAAAAAAAAAAAAAAAAAAAAAAAAAAAAAAAAAAAAAAAAAAAAAAAAAAAAAAAAAAAAAAAAAAAAAAAAAAAAAAAAAAAAAAAAAAAAAAAAAAAAAAAAAAAAAAAAAAAAAAAAAAAAAAAAAAAAAAAAAAAAAAAAAAAAAAAAAAAAAAAAAAAAAAAAAAAAAAAAAAAAAAAAAAAAAAAAAAAAAAAAAAAAAAAAAAAAAAAAAAAAAAAAAAAAAAAAAAAAAAAAAAAAAAAAAAAAAAAAAAAAAAAAAAAAAAAAAAAAAAAAAAAAAAAAAAAAAAAAAAAAAAAAAAAAAAAAAAAAAAAAAAAAAAAAAAAAAAAAAAAAAAAAAAAAAAAAAAAAAAAAAAAAAAAAAAAAAAAAAAAAAAAAAAAAAAAAAAAAAAAAAAAAAAAAAAAAAAAAAAAAAAAAAAAAAAAAAIAAAAAAAAAAAAAAAAAAAAAAAAAAAAAAAAA8D8AAAAAAADwPwAAAAAAAAAAAAAAAAAAAAAAAAAAAAAAAAAAAAAAAAAAAAAAAAAAAAAAAAAAAAAAAAAAAAAAAAAAAAAAAAAAAAAAAAAAAAAAAAAAAAAAAAAAAAAAAAAAAAAAAAAAAAAAAAAAAAAAAAAAAAAAAAAAAAAAAAAAAAAAAAAAAAAAAAAAAAAAAAAAAAAAAAAAAAAAAAAAAAAAAAAAAAAAAAAAAAAAAAAAAAAAAAAAAAAAAAAAAAAAAAAAAAAAAAAAAAAAAAAAAAAAAAAAAAAAAAAAAAAAAAAAAAAAAAAAAAAAAAAAAAAAAAAAAAAAAAAAAAAAAAAAAAAAAAAAAAAAAAAAAAAAAAAAAAAAAAAAAAAAAAAAAAAAAAAAAAAAAAAAAAAAAAAAAAAAAAAAAAAAAAAAAAAAAAAAAAAAAAAAAAAAAAAAAAAAAAAAAAAAAAAAAAAAAAAAAAAAAAAAAAAAAAAAAAAAAAAAAAAAAAAAAAAAAAAAAAAAAAAAAAAAAAAAAAAAAAAAAAAAAAAAAAAAAAAAAAAAAAAAAAAAAAAAAAAAAAAAAAAAAAAAAAAAAAAAAAAAAAAAAAAAAAAAAAAAAAAAAAAAAAAAAAAAAAAAAAAAAAAAAAAAAAAAAAAAAAAAAAAAAA==</value>
									</parameter>
									<parameter authoringApp="PremierePro">
										<parameterid>42</parameterid>
										<name> </name>
										<hash>ccfaa4df-d630-7661-76dd-3e4900000214</hash>
										<value>AQAAAAAAAAAAAAAAAAAAAAAAAAAAAAAAAAAAAAAA8D8AAAAAAADwPwAAAAAAAAAAAAAAAAAAAAAAAAAAAAAAAAAAAAAAAAAAAAAAAAAAAAAAAAAAAAAAAAAAAAAAAAAAAAAAAAAAAAAAAAAAAAAAAAAAAAAAAAAAAAAAAAAAAAAAAAAAAAAAAAAAAAAAAAAAAAAAAAAAAAAAAAAAAAAAAAAAAAAAAAAAAAAAAAAAAAAAAAAAAAAAAAAAAAAAAAAAAAAAAAAAAAAAAAAAAAAAAAAAAAAAAAAAAAAAAAAAAAAAAAAAAAAAAAAAAAAAAAAAAAAAAAAAAAAAAAAAAAAAAAAAAAAAAAAAAAAAAAAAAAAAAAAAAAAAAAAAAAAAAAAAAAAAAAAAAAAAAAAAAAAAAAAAAAAAAAAAAAAAAAAAAAAAAAAAAAAAAAAAAAAAAAAAAAAAAAAAAAAAAAAAAAAAAAAAAAAAAAAAAAAAAAAAAAAAAAAAAAAAAAAAAAAAAAAAAAAAAAAAAAAAAAAAAAAAAAAAAAAAAAAAAAAAAAAAAAAAAAAAAAAAAAAAAAAAAAAAAAAAAAAAAAAAAAAAAAAAAAAAAAAAAAAAAAAAAAAAAAAAAAAAAAAAAAAAAAAAAAAAAAAAAAAAAAAAAAAAAAAAAAAAAAAAAAAAAAAAAAAAAAAAAAAAAAAAAA==</value>
									</parameter>
									<parameter authoringApp="PremierePro">
										<parameterid>46</parameterid>
										<name> </name>
										<IsTimeVarying>false</IsTimeVarying>
										<ParameterControlType>4</ParameterControlType>
										<LowerBound>false</LowerBound>
										<UpperBound>true</UpperBound>
										<value>-91445760000000000,true,0,0,0,0,0,0</value>
									</parameter>
									<parameter authoringApp="PremierePro">
										<parameterid>47</parameterid>
										<name> </name>
										<hash>1ba7724e-68ca-2d9f-ae30-6bfb00000054</hash>
										<value>AAAAAAAAAAAAAAAAAADgPwAAAAAAAAAAAAAAAAAAAAAAAAAAAADgPwAAAAAAAAAAAAAAAAAAAAAAAAAAAADgPwAAAAAAAAAA</value>
									</parameter>
									<parameter authoringApp="PremierePro">
										<parameterid>50</parameterid>
										<name> </name>
										<IsTimeVarying>false</IsTimeVarying>
										<ParameterControlType>4</ParameterControlType>
										<LowerBound>false</LowerBound>
										<UpperBound>true</UpperBound>
										<value>-91445760000000000,true,0,0,0,0,0,0</value>
									</parameter>
									<parameter authoringApp="PremierePro">
										<parameterid>51</parameterid>
										<name>Amount</name>
										<IsTimeVarying>false</IsTimeVarying>
										<ParameterControlType>8</ParameterControlType>
										<LowerBound>-5</LowerBound>
										<UpperBound>5</UpperBound>
										<LowerUIBound>-3</LowerUIBound>
										<UpperUIBound>3</UpperUIBound>
										<value>-91445760000000000,0.,0,0,0,0,0,0</value>
									</parameter>
									<parameter authoringApp="PremierePro">
										<parameterid>52</parameterid>
										<name>Midpoint</name>
										<IsTimeVarying>false</IsTimeVarying>
										<ParameterControlType>8</ParameterControlType>
										<LowerBound>0</LowerBound>
										<UpperBound>100</UpperBound>
										<value>-91445760000000000,50.,0,0,0,0,0,0</value>
									</parameter>
									<parameter authoringApp="PremierePro">
										<parameterid>53</parameterid>
										<name>Roundness</name>
										<IsTimeVarying>false</IsTimeVarying>
										<ParameterControlType>8</ParameterControlType>
										<LowerBound>-100</LowerBound>
										<UpperBound>100</UpperBound>
										<value>-91445760000000000,0.,0,0,0,0,0,0</value>
									</parameter>
									<parameter authoringApp="PremierePro">
										<parameterid>54</parameterid>
										<name>Feather</name>
										<IsTimeVarying>false</IsTimeVarying>
										<ParameterControlType>8</ParameterControlType>
										<LowerBound>0</LowerBound>
										<UpperBound>100</UpperBound>
										<value>-91445760000000000,50.,0,0,0,0,0,0</value>
									</parameter>
								</effect>
							</filter>
						<logginginfo>
							<description></description>
							<scene></scene>
							<shottake></shottake>
							<lognote></lognote>
						</logginginfo>
						<labels>
							<label2>Iris</label2>
						</labels>
					</clipitem>
					<clipitem id="clipitem-18" frameBlend="FALSE">
						<masterclipid>masterclip-14</masterclipid>
						<name>DSC_8360.MOV</name>
						<enabled>TRUE</enabled>
						<duration>156</duration>
						<rate>
							<timebase>24</timebase>
							<ntsc>TRUE</ntsc>
						</rate>
						<start>157</start>
						<end>207</end>
						<in>0</in>
						<out>50</out>
						<pproTicksIn>0</pproTicksIn>
						<pproTicksOut>529729200000</pproTicksOut>
						<alphatype>black</alphatype>
						<pixelaspectratio>square</pixelaspectratio>
						<anamorphic>FALSE</anamorphic>
						<file id="file-14">
							<name>DSC_8360.MOV</name>
							<pathurl>file://localhost/Users/linnpersson/Pictures/Bilder-bibliotek.photoslibrary/Masters/2016/01/31/20160131-151434/DSC_8360.MOV</pathurl>
							<rate>
								<timebase>24</timebase>
								<ntsc>TRUE</ntsc>
							</rate>
							<duration>156</duration>
							<timecode>
								<rate>
									<timebase>24</timebase>
									<ntsc>TRUE</ntsc>
								</rate>
								<string>00:00:00:00</string>
								<frame>0</frame>
								<displayformat>NDF</displayformat>
								<reel>
									<name></name>
								</reel>
							</timecode>
							<media>
								<video>
									<samplecharacteristics>
										<rate>
											<timebase>24</timebase>
											<ntsc>TRUE</ntsc>
										</rate>
										<width>1920</width>
										<height>1080</height>
										<anamorphic>FALSE</anamorphic>
										<pixelaspectratio>square</pixelaspectratio>
										<fielddominance>none</fielddominance>
									</samplecharacteristics>
								</video>
								<audio>
									<samplecharacteristics>
										<depth>16</depth>
										<samplerate>48000</samplerate>
									</samplecharacteristics>
									<channelcount>2</channelcount>
								</audio>
							</media>
						</file>
							<filter>
								<effect>
									<name></name>
									<effectid>Lumetri</effectid>
									<effecttype>filter</effecttype>
									<mediatype>video</mediatype>
									<parameter authoringApp="PremierePro">
										<parameterid>1</parameterid>
										<name>File Path</name>
										<hash>63866a15-9327-e4cb-ff31-c9ea0000000e</hash>
									</parameter>
									<parameter authoringApp="PremierePro">
										<parameterid>3</parameterid>
										<name> </name>
										<IsTimeVarying>false</IsTimeVarying>
										<ParameterControlType>4</ParameterControlType>
										<LowerBound>false</LowerBound>
										<UpperBound>true</UpperBound>
										<value>-91445760000000000,true,0,0,0,0,0,0</value>
									</parameter>
									<parameter authoringApp="PremierePro">
										<parameterid>4</parameterid>
										<name> </name>
										<hash>63866a15-9327-e4cb-ff31-c9ea0000000e</hash>
									</parameter>
									<parameter authoringApp="PremierePro">
										<parameterid>5</parameterid>
										<name>Input LUT</name>
										<IsTimeVarying>false</IsTimeVarying>
										<ParameterControlType>7</ParameterControlType>
										<LowerBound>0</LowerBound>
										<UpperBound>998</UpperBound>
										<value>-91445760000000000,0,0,0,0,0,0,0</value>
									</parameter>
									<parameter authoringApp="PremierePro">
										<parameterid>7</parameterid>
										<name>Temperature</name>
										<IsTimeVarying>false</IsTimeVarying>
										<ParameterControlType>8</ParameterControlType>
										<LowerBound>-150</LowerBound>
										<UpperBound>150</UpperBound>
										<LowerUIBound>-100</LowerUIBound>
										<UpperUIBound>100</UpperUIBound>
										<value>-91445760000000000,0.,0,0,0,0,0,0</value>
									</parameter>
									<parameter authoringApp="PremierePro">
										<parameterid>8</parameterid>
										<name>Tint</name>
										<IsTimeVarying>false</IsTimeVarying>
										<ParameterControlType>8</ParameterControlType>
										<LowerBound>-150</LowerBound>
										<UpperBound>150</UpperBound>
										<LowerUIBound>-100</LowerUIBound>
										<UpperUIBound>100</UpperUIBound>
										<value>-91445760000000000,0.,0,0,0,0,0,0</value>
									</parameter>
									<parameter authoringApp="PremierePro">
										<parameterid>11</parameterid>
										<name>Exposure</name>
										<IsTimeVarying>false</IsTimeVarying>
										<ParameterControlType>8</ParameterControlType>
										<LowerBound>-7</LowerBound>
										<UpperBound>7</UpperBound>
										<LowerUIBound>-5</LowerUIBound>
										<UpperUIBound>5</UpperUIBound>
										<value>-91445760000000000,0.,0,0,0,0,0,0</value>
									</parameter>
									<parameter authoringApp="PremierePro">
										<parameterid>12</parameterid>
										<name>Contrast</name>
										<IsTimeVarying>false</IsTimeVarying>
										<ParameterControlType>8</ParameterControlType>
										<LowerBound>-150</LowerBound>
										<UpperBound>150</UpperBound>
										<LowerUIBound>-100</LowerUIBound>
										<UpperUIBound>100</UpperUIBound>
										<value>-91445760000000000,0.,0,0,0,0,0,0</value>
									</parameter>
									<parameter authoringApp="PremierePro">
										<parameterid>13</parameterid>
										<name>Highlights</name>
										<IsTimeVarying>false</IsTimeVarying>
										<ParameterControlType>8</ParameterControlType>
										<LowerBound>-150</LowerBound>
										<UpperBound>150</UpperBound>
										<LowerUIBound>-100</LowerUIBound>
										<UpperUIBound>100</UpperUIBound>
										<value>-91445760000000000,0.,0,0,0,0,0,0</value>
									</parameter>
									<parameter authoringApp="PremierePro">
										<parameterid>14</parameterid>
										<name>Shadows</name>
										<IsTimeVarying>false</IsTimeVarying>
										<ParameterControlType>8</ParameterControlType>
										<LowerBound>-150</LowerBound>
										<UpperBound>150</UpperBound>
										<LowerUIBound>-100</LowerUIBound>
										<UpperUIBound>100</UpperUIBound>
										<value>-91445760000000000,0.,0,0,0,0,0,0</value>
									</parameter>
									<parameter authoringApp="PremierePro">
										<parameterid>15</parameterid>
										<name>Whites</name>
										<IsTimeVarying>false</IsTimeVarying>
										<ParameterControlType>8</ParameterControlType>
										<LowerBound>-150</LowerBound>
										<UpperBound>150</UpperBound>
										<LowerUIBound>-100</LowerUIBound>
										<UpperUIBound>100</UpperUIBound>
										<value>-91445760000000000,0.,0,0,0,0,0,0</value>
									</parameter>
									<parameter authoringApp="PremierePro">
										<parameterid>16</parameterid>
										<name>Blacks</name>
										<IsTimeVarying>false</IsTimeVarying>
										<ParameterControlType>8</ParameterControlType>
										<LowerBound>-150</LowerBound>
										<UpperBound>150</UpperBound>
										<LowerUIBound>-100</LowerUIBound>
										<UpperUIBound>100</UpperUIBound>
										<value>-91445760000000000,0.,0,0,0,0,0,0</value>
									</parameter>
									<parameter authoringApp="PremierePro">
										<parameterid>20</parameterid>
										<name>Saturation</name>
										<IsTimeVarying>false</IsTimeVarying>
										<ParameterControlType>8</ParameterControlType>
										<LowerBound>0</LowerBound>
										<UpperBound>300</UpperBound>
										<UpperUIBound>200</UpperUIBound>
										<value>-91445760000000000,100.,0,0,0,0,0,0</value>
									</parameter>
									<parameter authoringApp="PremierePro">
										<parameterid>23</parameterid>
										<name> </name>
										<IsTimeVarying>false</IsTimeVarying>
										<ParameterControlType>4</ParameterControlType>
										<LowerBound>false</LowerBound>
										<UpperBound>true</UpperBound>
										<value>-91445760000000000,true,0,0,0,0,0,0</value>
									</parameter>
									<parameter authoringApp="PremierePro">
										<parameterid>24</parameterid>
										<name> </name>
										<hash>63866a15-9327-e4cb-ff31-c9ea0000000e</hash>
									</parameter>
									<parameter authoringApp="PremierePro">
										<parameterid>25</parameterid>
										<name>Look</name>
										<IsTimeVarying>false</IsTimeVarying>
										<ParameterControlType>7</ParameterControlType>
										<LowerBound>0</LowerBound>
										<UpperBound>998</UpperBound>
										<value>-91445760000000000,0,0,0,0,0,0,0</value>
									</parameter>
									<parameter authoringApp="PremierePro">
										<parameterid>26</parameterid>
										<name>Intensity</name>
										<IsTimeVarying>false</IsTimeVarying>
										<ParameterControlType>8</ParameterControlType>
										<LowerBound>0</LowerBound>
										<UpperBound>200</UpperBound>
										<value>-91445760000000000,100.,0,0,0,0,0,0</value>
									</parameter>
									<parameter authoringApp="PremierePro">
										<parameterid>28</parameterid>
										<name>Faded Film</name>
										<IsTimeVarying>false</IsTimeVarying>
										<ParameterControlType>8</ParameterControlType>
										<LowerBound>0</LowerBound>
										<UpperBound>150</UpperBound>
										<UpperUIBound>100</UpperUIBound>
										<value>-91445760000000000,0.,0,0,0,0,0,0</value>
									</parameter>
									<parameter authoringApp="PremierePro">
										<parameterid>29</parameterid>
										<name>Sharpen</name>
										<IsTimeVarying>false</IsTimeVarying>
										<ParameterControlType>8</ParameterControlType>
										<LowerBound>-100</LowerBound>
										<UpperBound>100</UpperBound>
										<value>-91445760000000000,0.,0,0,0,0,0,0</value>
									</parameter>
									<parameter authoringApp="PremierePro">
										<parameterid>30</parameterid>
										<name>Vibrance</name>
										<IsTimeVarying>false</IsTimeVarying>
										<ParameterControlType>8</ParameterControlType>
										<LowerBound>-100</LowerBound>
										<UpperBound>100</UpperBound>
										<value>-91445760000000000,0.,0,0,0,0,0,0</value>
									</parameter>
									<parameter authoringApp="PremierePro">
										<parameterid>31</parameterid>
										<name>Saturation</name>
										<IsTimeVarying>false</IsTimeVarying>
										<ParameterControlType>8</ParameterControlType>
										<LowerBound>0</LowerBound>
										<UpperBound>300</UpperBound>
										<UpperUIBound>200</UpperUIBound>
										<value>-91445760000000000,100.,0,0,0,0,0,0</value>
									</parameter>
									<parameter authoringApp="PremierePro">
										<parameterid>32</parameterid>
										<name></name>
										<hash>49d2fca5-ddd1-a393-0544-f6d80000002c</hash>
									</parameter>
									<parameter authoringApp="PremierePro">
										<parameterid>33</parameterid>
										<name>Tint Balance</name>
										<IsTimeVarying>false</IsTimeVarying>
										<ParameterControlType>8</ParameterControlType>
										<LowerBound>-150</LowerBound>
										<UpperBound>150</UpperBound>
										<LowerUIBound>-100</LowerUIBound>
										<UpperUIBound>100</UpperUIBound>
										<value>-91445760000000000,0.,0,0,0,0,0,0</value>
									</parameter>
									<parameter authoringApp="PremierePro">
										<parameterid>37</parameterid>
										<name> </name>
										<IsTimeVarying>false</IsTimeVarying>
										<ParameterControlType>4</ParameterControlType>
										<LowerBound>false</LowerBound>
										<UpperBound>true</UpperBound>
										<value>-91445760000000000,true,0,0,0,0,0,0</value>
									</parameter>
									<parameter authoringApp="PremierePro">
										<parameterid>39</parameterid>
										<name> </name>
										<hash>261f3840-e8cf-a8cd-fa5e-bac10000082c</hash>
									</parameter>
									<parameter authoringApp="PremierePro">
										<parameterid>42</parameterid>
										<name> </name>
										<hash>ccfaa4df-d630-7661-76dd-3e4900000214</hash>
									</parameter>
									<parameter authoringApp="PremierePro">
										<parameterid>46</parameterid>
										<name> </name>
										<IsTimeVarying>false</IsTimeVarying>
										<ParameterControlType>4</ParameterControlType>
										<LowerBound>false</LowerBound>
										<UpperBound>true</UpperBound>
										<value>-91445760000000000,true,0,0,0,0,0,0</value>
									</parameter>
									<parameter authoringApp="PremierePro">
										<parameterid>47</parameterid>
										<name> </name>
										<hash>1ba7724e-68ca-2d9f-ae30-6bfb00000054</hash>
									</parameter>
									<parameter authoringApp="PremierePro">
										<parameterid>50</parameterid>
										<name> </name>
										<IsTimeVarying>false</IsTimeVarying>
										<ParameterControlType>4</ParameterControlType>
										<LowerBound>false</LowerBound>
										<UpperBound>true</UpperBound>
										<value>-91445760000000000,true,0,0,0,0,0,0</value>
									</parameter>
									<parameter authoringApp="PremierePro">
										<parameterid>51</parameterid>
										<name>Amount</name>
										<IsTimeVarying>false</IsTimeVarying>
										<ParameterControlType>8</ParameterControlType>
										<LowerBound>-5</LowerBound>
										<UpperBound>5</UpperBound>
										<LowerUIBound>-3</LowerUIBound>
										<UpperUIBound>3</UpperUIBound>
										<value>-91445760000000000,0.,0,0,0,0,0,0</value>
									</parameter>
									<parameter authoringApp="PremierePro">
										<parameterid>52</parameterid>
										<name>Midpoint</name>
										<IsTimeVarying>false</IsTimeVarying>
										<ParameterControlType>8</ParameterControlType>
										<LowerBound>0</LowerBound>
										<UpperBound>100</UpperBound>
										<value>-91445760000000000,50.,0,0,0,0,0,0</value>
									</parameter>
									<parameter authoringApp="PremierePro">
										<parameterid>53</parameterid>
										<name>Roundness</name>
										<IsTimeVarying>false</IsTimeVarying>
										<ParameterControlType>8</ParameterControlType>
										<LowerBound>-100</LowerBound>
										<UpperBound>100</UpperBound>
										<value>-91445760000000000,0.,0,0,0,0,0,0</value>
									</parameter>
									<parameter authoringApp="PremierePro">
										<parameterid>54</parameterid>
										<name>Feather</name>
										<IsTimeVarying>false</IsTimeVarying>
										<ParameterControlType>8</ParameterControlType>
										<LowerBound>0</LowerBound>
										<UpperBound>100</UpperBound>
										<value>-91445760000000000,50.,0,0,0,0,0,0</value>
									</parameter>
								</effect>
							</filter>
						<logginginfo>
							<description></description>
							<scene></scene>
							<shottake></shottake>
							<lognote></lognote>
						</logginginfo>
						<labels>
							<label2>Iris</label2>
						</labels>
					</clipitem>
					<clipitem id="clipitem-19" frameBlend="FALSE">
						<masterclipid>masterclip-15</masterclipid>
						<name>DSC_8369.MOV</name>
						<enabled>TRUE</enabled>
						<duration>162</duration>
						<rate>
							<timebase>24</timebase>
							<ntsc>TRUE</ntsc>
						</rate>
						<start>207</start>
						<end>267</end>
						<in>0</in>
						<out>60</out>
						<pproTicksIn>0</pproTicksIn>
						<pproTicksOut>635675040000</pproTicksOut>
						<alphatype>black</alphatype>
						<pixelaspectratio>square</pixelaspectratio>
						<anamorphic>FALSE</anamorphic>
						<file id="file-15">
							<name>DSC_8369.MOV</name>
							<pathurl>file://localhost/Users/linnpersson/Pictures/Bilder-bibliotek.photoslibrary/Masters/2016/01/31/20160131-151434/DSC_8369.MOV</pathurl>
							<rate>
								<timebase>24</timebase>
								<ntsc>TRUE</ntsc>
							</rate>
							<duration>162</duration>
							<timecode>
								<rate>
									<timebase>24</timebase>
									<ntsc>TRUE</ntsc>
								</rate>
								<string>00:00:00:00</string>
								<frame>0</frame>
								<displayformat>NDF</displayformat>
								<reel>
									<name></name>
								</reel>
							</timecode>
							<media>
								<video>
									<samplecharacteristics>
										<rate>
											<timebase>24</timebase>
											<ntsc>TRUE</ntsc>
										</rate>
										<width>1920</width>
										<height>1080</height>
										<anamorphic>FALSE</anamorphic>
										<pixelaspectratio>square</pixelaspectratio>
										<fielddominance>none</fielddominance>
									</samplecharacteristics>
								</video>
								<audio>
									<samplecharacteristics>
										<depth>16</depth>
										<samplerate>48000</samplerate>
									</samplecharacteristics>
									<channelcount>2</channelcount>
								</audio>
							</media>
						</file>
						<logginginfo>
							<description></description>
							<scene></scene>
							<shottake></shottake>
							<lognote></lognote>
						</logginginfo>
						<labels>
							<label2>Iris</label2>
						</labels>
					</clipitem>
					<clipitem id="clipitem-20" frameBlend="FALSE">
						<masterclipid>masterclip-16</masterclipid>
						<name>DSC_8372.MOV</name>
						<enabled>TRUE</enabled>
						<duration>1680</duration>
						<rate>
							<timebase>24</timebase>
							<ntsc>TRUE</ntsc>
						</rate>
						<start>267</start>
						<end>318</end>
						<in>341</in>
						<out>392</out>
						<pproTicksIn>3612753144000</pproTicksIn>
						<pproTicksOut>4153076928000</pproTicksOut>
						<alphatype>black</alphatype>
						<pixelaspectratio>square</pixelaspectratio>
						<anamorphic>FALSE</anamorphic>
						<file id="file-16">
							<name>DSC_8372.MOV</name>
							<pathurl>file://localhost/Users/linnpersson/Pictures/Bilder-bibliotek.photoslibrary/Masters/2016/01/31/20160131-151434/DSC_8372.MOV</pathurl>
							<rate>
								<timebase>24</timebase>
								<ntsc>TRUE</ntsc>
							</rate>
							<duration>1680</duration>
							<timecode>
								<rate>
									<timebase>24</timebase>
									<ntsc>TRUE</ntsc>
								</rate>
								<string>00:00:00:00</string>
								<frame>0</frame>
								<displayformat>NDF</displayformat>
								<reel>
									<name></name>
								</reel>
							</timecode>
							<media>
								<video>
									<samplecharacteristics>
										<rate>
											<timebase>24</timebase>
											<ntsc>TRUE</ntsc>
										</rate>
										<width>1920</width>
										<height>1080</height>
										<anamorphic>FALSE</anamorphic>
										<pixelaspectratio>square</pixelaspectratio>
										<fielddominance>none</fielddominance>
									</samplecharacteristics>
								</video>
								<audio>
									<samplecharacteristics>
										<depth>16</depth>
										<samplerate>48000</samplerate>
									</samplecharacteristics>
									<channelcount>2</channelcount>
								</audio>
							</media>
						</file>
						<logginginfo>
							<description></description>
							<scene></scene>
							<shottake></shottake>
							<lognote></lognote>
						</logginginfo>
						<labels>
							<label2>Iris</label2>
						</labels>
					</clipitem>
					<clipitem id="clipitem-21" frameBlend="FALSE">
						<masterclipid>masterclip-15</masterclipid>
						<name>DSC_8369.MOV</name>
						<enabled>TRUE</enabled>
						<duration>162</duration>
						<rate>
							<timebase>24</timebase>
							<ntsc>TRUE</ntsc>
						</rate>
						<start>318</start>
						<end>374</end>
						<in>95</in>
						<out>151</out>
						<pproTicksIn>1006485480000</pproTicksIn>
						<pproTicksOut>1599782184000</pproTicksOut>
						<alphatype>black</alphatype>
						<file id="file-15"/>
						<logginginfo>
							<description></description>
							<scene></scene>
							<shottake></shottake>
							<lognote></lognote>
						</logginginfo>
						<labels>
							<label2>Iris</label2>
						</labels>
					</clipitem>
					<clipitem id="clipitem-22" frameBlend="FALSE">
						<masterclipid>masterclip-17</masterclipid>
						<name>DSC_8366.MOV</name>
						<enabled>TRUE</enabled>
						<duration>424</duration>
						<rate>
							<timebase>24</timebase>
							<ntsc>TRUE</ntsc>
						</rate>
						<start>374</start>
						<end>798</end>
						<in>0</in>
						<out>424</out>
						<pproTicksIn>0</pproTicksIn>
						<pproTicksOut>13476310847999</pproTicksOut>
						<alphatype>black</alphatype>
						<pixelaspectratio>square</pixelaspectratio>
						<anamorphic>FALSE</anamorphic>
						<file id="file-17">
							<name>DSC_8366.MOV</name>
							<pathurl>file://localhost/Users/linnpersson/Pictures/Bilder-bibliotek.photoslibrary/Masters/2016/01/31/20160131-151434/DSC_8366.MOV</pathurl>
							<rate>
								<timebase>24</timebase>
								<ntsc>TRUE</ntsc>
							</rate>
							<duration>1272</duration>
							<timecode>
								<rate>
									<timebase>24</timebase>
									<ntsc>TRUE</ntsc>
								</rate>
								<string>00:00:00:00</string>
								<frame>0</frame>
								<displayformat>NDF</displayformat>
								<reel>
									<name></name>
								</reel>
							</timecode>
							<media>
								<video>
									<samplecharacteristics>
										<rate>
											<timebase>24</timebase>
											<ntsc>TRUE</ntsc>
										</rate>
										<width>1920</width>
										<height>1080</height>
										<anamorphic>FALSE</anamorphic>
										<pixelaspectratio>square</pixelaspectratio>
										<fielddominance>none</fielddominance>
									</samplecharacteristics>
								</video>
								<audio>
									<samplecharacteristics>
										<depth>16</depth>
										<samplerate>48000</samplerate>
									</samplecharacteristics>
									<channelcount>2</channelcount>
								</audio>
							</media>
						</file>
							<filter>
								<effect>
									<name>Time Remap</name>
									<effectid>timeremap</effectid>
									<effectcategory>motion</effectcategory>
									<effecttype>motion</effecttype>
									<mediatype>video</mediatype>
									<parameter authoringApp="PremierePro">
										<parameterid>variablespeed</parameterid>
										<name>variablespeed</name>
										<valuemin>0</valuemin>
										<valuemax>1</valuemax>
										<value>0</value>
									</parameter>
									<parameter authoringApp="PremierePro">
										<parameterid>mappedduration</parameterid>
										<name>mappedduration</name>
										<value>
											<timecode>
												<rate>
													<timebase>0</timebase>
												</rate>
												<string>0</string>
												<frame>0</frame>
												<displayformat>NDF</displayformat>
											</timecode>
										</value>
									</parameter>
									<parameter authoringApp="PremierePro">
										<parameterid>speed</parameterid>
										<name>speed</name>
										<valuemin>-100000</valuemin>
										<valuemax>100000</valuemax>
										<value>300</value>
									</parameter>
									<parameter authoringApp="PremierePro">
										<parameterid>reverse</parameterid>
										<name>reverse</name>
										<value>FALSE</value>
									</parameter>
									<parameter authoringApp="PremierePro">
										<parameterid>frameblending</parameterid>
										<name>frameblending</name>
										<value>FALSE</value>
									</parameter>
								</effect>
							</filter>
						<logginginfo>
							<description></description>
							<scene></scene>
							<shottake></shottake>
							<lognote></lognote>
						</logginginfo>
						<labels>
							<label2>Iris</label2>
						</labels>
					</clipitem>
					<enabled>TRUE</enabled>
					<locked>FALSE</locked>
				</track>
				<track TL.SQTrackShy="0" TL.SQTrackExpandedHeight="25" TL.SQTrackExpanded="0" MZ.TrackTargeted="0">
					<enabled>TRUE</enabled>
					<locked>FALSE</locked>
				</track>
				<track TL.SQTrackShy="0" TL.SQTrackExpandedHeight="25" TL.SQTrackExpanded="0" MZ.TrackTargeted="0">
					<enabled>TRUE</enabled>
					<locked>FALSE</locked>
				</track>
			</video>
			<audio>
				<numOutputChannels>2</numOutputChannels>
				<format>
					<samplecharacteristics>
						<depth>16</depth>
						<samplerate>48000</samplerate>
					</samplecharacteristics>
				</format>
				<outputs>
					<group>
						<index>1</index>
						<numchannels>1</numchannels>
						<downmix>0</downmix>
						<channel>
							<index>1</index>
						</channel>
					</group>
					<group>
						<index>2</index>
						<numchannels>1</numchannels>
						<downmix>0</downmix>
						<channel>
							<index>2</index>
						</channel>
					</group>
				</outputs>
				<track TL.SQTrackAudioKeyframeStyle="0" TL.SQTrackShy="0" TL.SQTrackExpandedHeight="25" TL.SQTrackExpanded="1" MZ.TrackTargeted="1" PannerCurrentValue="0.5" PannerIsInverted="true" PannerStartKeyframe="-91445760000000000,0.5,0,0,0,0,0,0" PannerName="Balance" currentExplodedTrackIndex="0" totalExplodedTrackCount="2" premiereTrackType="Stereo">
					<clipitem id="clipitem-23" frameBlend="FALSE" premiereChannelType="stereo">
						<masterclipid>masterclip-18</masterclipid>
						<name>LinnPortfolio.mp3</name>
						<enabled>TRUE</enabled>
						<duration>1467</duration>
						<rate>
							<timebase>24</timebase>
							<ntsc>TRUE</ntsc>
						</rate>
						<start>0</start>
						<end>798</end>
						<in>0</in>
						<out>798</out>
						<pproTicksIn>0</pproTicksIn>
						<pproTicksOut>8454478032000</pproTicksOut>
						<file id="file-18">
							<name>LinnPortfolio.mp3</name>
							<pathurl>file://localhost/Users/linnpersson/Downloads/LinnPortfolio.mp3</pathurl>
							<rate>
								<timebase>30</timebase>
								<ntsc>TRUE</ntsc>
							</rate>
							<duration>1834</duration>
							<timecode>
								<rate>
									<timebase>30</timebase>
									<ntsc>TRUE</ntsc>
								</rate>
								<string>00;00;00;00</string>
								<frame>0</frame>
								<displayformat>DF</displayformat>
								<reel>
									<name></name>
								</reel>
							</timecode>
							<media>
								<audio>
									<samplecharacteristics>
										<depth>16</depth>
										<samplerate>44100</samplerate>
									</samplecharacteristics>
									<channelcount>2</channelcount>
								</audio>
							</media>
						</file>
						<sourcetrack>
							<mediatype>audio</mediatype>
							<trackindex>1</trackindex>
						</sourcetrack>
						<link>
							<linkclipref>clipitem-23</linkclipref>
							<mediatype>audio</mediatype>
							<trackindex>1</trackindex>
							<clipindex>1</clipindex>
							<groupindex>1</groupindex>
						</link>
						<link>
							<linkclipref>clipitem-24</linkclipref>
							<mediatype>audio</mediatype>
							<trackindex>2</trackindex>
							<clipindex>1</clipindex>
							<groupindex>1</groupindex>
						</link>
						<logginginfo>
							<description></description>
							<scene></scene>
							<shottake></shottake>
							<lognote></lognote>
						</logginginfo>
						<labels>
							<label2>Caribbean</label2>
						</labels>
					</clipitem>
					<enabled>TRUE</enabled>
					<locked>FALSE</locked>
					<outputchannelindex>1</outputchannelindex>
				</track>
				<track TL.SQTrackAudioKeyframeStyle="0" TL.SQTrackShy="0" TL.SQTrackExpandedHeight="25" TL.SQTrackExpanded="1" MZ.TrackTargeted="1" PannerCurrentValue="0.5" PannerIsInverted="true" PannerStartKeyframe="-91445760000000000,0.5,0,0,0,0,0,0" PannerName="Balance" currentExplodedTrackIndex="1" totalExplodedTrackCount="2" premiereTrackType="Stereo">
					<clipitem id="clipitem-24" frameBlend="FALSE" premiereChannelType="stereo">
						<masterclipid>masterclip-18</masterclipid>
						<name>LinnPortfolio.mp3</name>
						<enabled>TRUE</enabled>
						<duration>1467</duration>
						<rate>
							<timebase>24</timebase>
							<ntsc>TRUE</ntsc>
						</rate>
						<start>0</start>
						<end>798</end>
						<in>0</in>
						<out>798</out>
						<pproTicksIn>0</pproTicksIn>
						<pproTicksOut>8454478032000</pproTicksOut>
						<file id="file-18"/>
						<sourcetrack>
							<mediatype>audio</mediatype>
							<trackindex>2</trackindex>
						</sourcetrack>
						<link>
							<linkclipref>clipitem-23</linkclipref>
							<mediatype>audio</mediatype>
							<trackindex>1</trackindex>
							<clipindex>1</clipindex>
							<groupindex>1</groupindex>
						</link>
						<link>
							<linkclipref>clipitem-24</linkclipref>
							<mediatype>audio</mediatype>
							<trackindex>2</trackindex>
							<clipindex>1</clipindex>
							<groupindex>1</groupindex>
						</link>
						<logginginfo>
							<description></description>
							<scene></scene>
							<shottake></shottake>
							<lognote></lognote>
						</logginginfo>
						<labels>
							<label2>Caribbean</label2>
						</labels>
					</clipitem>
					<enabled>TRUE</enabled>
					<locked>FALSE</locked>
					<outputchannelindex>2</outputchannelindex>
				</track>
				<track TL.SQTrackAudioKeyframeStyle="0" TL.SQTrackShy="0" TL.SQTrackExpandedHeight="25" TL.SQTrackExpanded="0" MZ.TrackTargeted="1" PannerCurrentValue="0.5" PannerIsInverted="true" PannerStartKeyframe="-91445760000000000,0.5,0,0,0,0,0,0" PannerName="Balance" currentExplodedTrackIndex="0" totalExplodedTrackCount="2" premiereTrackType="Stereo">
					<enabled>TRUE</enabled>
					<locked>FALSE</locked>
					<outputchannelindex>1</outputchannelindex>
				</track>
				<track TL.SQTrackAudioKeyframeStyle="0" TL.SQTrackShy="0" TL.SQTrackExpandedHeight="25" TL.SQTrackExpanded="0" MZ.TrackTargeted="1" PannerCurrentValue="0.5" PannerIsInverted="true" PannerStartKeyframe="-91445760000000000,0.5,0,0,0,0,0,0" PannerName="Balance" currentExplodedTrackIndex="1" totalExplodedTrackCount="2" premiereTrackType="Stereo">
					<enabled>TRUE</enabled>
					<locked>FALSE</locked>
					<outputchannelindex>2</outputchannelindex>
				</track>
				<track TL.SQTrackAudioKeyframeStyle="0" TL.SQTrackShy="0" TL.SQTrackExpandedHeight="25" TL.SQTrackExpanded="0" MZ.TrackTargeted="1" PannerCurrentValue="0.5" PannerIsInverted="true" PannerStartKeyframe="-91445760000000000,0.5,0,0,0,0,0,0" PannerName="Balance" currentExplodedTrackIndex="0" totalExplodedTrackCount="2" premiereTrackType="Stereo">
					<clipitem id="clipitem-25" frameBlend="FALSE" premiereChannelType="stereo">
						<masterclipid>masterclip-12</masterclipid>
						<name>DSC_8356.MOV</name>
						<enabled>TRUE</enabled>
						<duration>867</duration>
						<rate>
							<timebase>24</timebase>
							<ntsc>TRUE</ntsc>
						</rate>
						<start>57</start>
						<end>95</end>
						<in>211</in>
						<out>249</out>
						<pproTicksIn>2235457224000</pproTicksIn>
						<pproTicksOut>2638051416000</pproTicksOut>
						<file id="file-12"/>
						<sourcetrack>
							<mediatype>audio</mediatype>
							<trackindex>1</trackindex>
						</sourcetrack>
						<link>
							<linkclipref>clipitem-16</linkclipref>
							<mediatype>video</mediatype>
							<trackindex>1</trackindex>
							<clipindex>3</clipindex>
						</link>
						<link>
							<linkclipref>clipitem-25</linkclipref>
							<mediatype>audio</mediatype>
							<trackindex>5</trackindex>
							<clipindex>1</clipindex>
							<groupindex>1</groupindex>
						</link>
						<link>
							<linkclipref>clipitem-26</linkclipref>
							<mediatype>audio</mediatype>
							<trackindex>6</trackindex>
							<clipindex>1</clipindex>
							<groupindex>1</groupindex>
						</link>
						<logginginfo>
							<description></description>
							<scene></scene>
							<shottake></shottake>
							<lognote></lognote>
						</logginginfo>
						<labels>
							<label2>Iris</label2>
						</labels>
					</clipitem>
					<enabled>FALSE</enabled>
					<locked>FALSE</locked>
					<filter>
						<effect>
							<name>Audio Levels</name>
							<effectid>audiolevels</effectid>
							<effectcategory>audiolevels</effectcategory>
							<effecttype>audiolevels</effecttype>
							<mediatype>audio</mediatype>
							<parameter authoringApp="PremierePro">
								<parameterid>level</parameterid>
								<name>Level</name>
								<valuemin>0</valuemin>
								<valuemax>3.98109</valuemax>
								<value>1.86216</value>
							</parameter>
						</effect>
					</filter>
					<outputchannelindex>1</outputchannelindex>
				</track>
				<track TL.SQTrackAudioKeyframeStyle="0" TL.SQTrackShy="0" TL.SQTrackExpandedHeight="25" TL.SQTrackExpanded="0" MZ.TrackTargeted="1" PannerCurrentValue="0.5" PannerIsInverted="true" PannerStartKeyframe="-91445760000000000,0.5,0,0,0,0,0,0" PannerName="Balance" currentExplodedTrackIndex="1" totalExplodedTrackCount="2" premiereTrackType="Stereo">
					<clipitem id="clipitem-26" frameBlend="FALSE" premiereChannelType="stereo">
						<masterclipid>masterclip-12</masterclipid>
						<name>DSC_8356.MOV</name>
						<enabled>TRUE</enabled>
						<duration>867</duration>
						<rate>
							<timebase>24</timebase>
							<ntsc>TRUE</ntsc>
						</rate>
						<start>57</start>
						<end>95</end>
						<in>211</in>
						<out>249</out>
						<pproTicksIn>2235457224000</pproTicksIn>
						<pproTicksOut>2638051416000</pproTicksOut>
						<file id="file-12"/>
						<sourcetrack>
							<mediatype>audio</mediatype>
							<trackindex>2</trackindex>
						</sourcetrack>
						<link>
							<linkclipref>clipitem-16</linkclipref>
							<mediatype>video</mediatype>
							<trackindex>1</trackindex>
							<clipindex>3</clipindex>
						</link>
						<link>
							<linkclipref>clipitem-25</linkclipref>
							<mediatype>audio</mediatype>
							<trackindex>5</trackindex>
							<clipindex>1</clipindex>
							<groupindex>1</groupindex>
						</link>
						<link>
							<linkclipref>clipitem-26</linkclipref>
							<mediatype>audio</mediatype>
							<trackindex>6</trackindex>
							<clipindex>1</clipindex>
							<groupindex>1</groupindex>
						</link>
						<logginginfo>
							<description></description>
							<scene></scene>
							<shottake></shottake>
							<lognote></lognote>
						</logginginfo>
						<labels>
							<label2>Iris</label2>
						</labels>
					</clipitem>
					<enabled>FALSE</enabled>
					<locked>FALSE</locked>
					<filter>
						<effect>
							<name>Audio Levels</name>
							<effectid>audiolevels</effectid>
							<effectcategory>audiolevels</effectcategory>
							<effecttype>audiolevels</effecttype>
							<mediatype>audio</mediatype>
							<parameter authoringApp="PremierePro">
								<parameterid>level</parameterid>
								<name>Level</name>
								<valuemin>0</valuemin>
								<valuemax>3.98109</valuemax>
								<value>1.86216</value>
							</parameter>
						</effect>
					</filter>
					<outputchannelindex>2</outputchannelindex>
				</track>
			</audio>
		</media>
		<timecode>
			<rate>
				<timebase>24</timebase>
				<ntsc>TRUE</ntsc>
			</rate>
			<string>00:00:00:00</string>
			<frame>0</frame>
			<displayformat>NDF</displayformat>
		</timecode>
		<labels>
			<label2>Forest</label2>
		</labels>
	</sequence>
</xmeml>
