<!-- Generator: Adobe Illustrator 19.1.0, SVG Export Plug-In  -->
<svg version="1.1"
	 xmlns="http://www.w3.org/2000/svg" xmlns:xlink="http://www.w3.org/1999/xlink" xmlns:a="http://ns.adobe.com/AdobeSVGViewerExtensions/3.0/"
	 x="0px" y="0px" width="849.2px" height="547.2px" viewBox="0 0 849.2 547.2" style="enable-background:new 0 0 849.2 547.2;"
	 xml:space="preserve">
<style type="text/css">
	.st0{fill:none;stroke:#000000;stroke-miterlimit:10;}
	.st1{fill:none;}
	.st2{fill:#C9B1B4;}
	.st3{font-family:'Phosphate-Inline';}
	.st4{font-size:18px;}
	.st5{font-size:36px;}
	.st6{letter-spacing:-2;}
</style>
<defs>
</defs>
<polyline class="st0" points="756.5,501.6 33.7,501.6 33.7,2.5 "/>
<rect x="51.6" y="515.6" class="st1" width="159.6" height="31.6"/>
<text transform="matrix(1 0 0 1 51.6084 527.6494)" class="st2 st3 st4">monday</text>
<rect x="149.5" y="515.6" class="st1" width="159.6" height="31.6"/>
<text transform="matrix(1 0 0 1 149.5031 527.6494)" class="st2 st3 st4">thuesday</text>
<rect x="259.7" y="515.6" class="st1" width="159.6" height="31.6"/>
<text transform="matrix(1 0 0 1 259.6786 527.6494)" class="st2 st3 st4">wednesday</text>
<rect x="375.8" y="515.6" class="st1" width="159.6" height="31.6"/>
<text transform="matrix(1 0 0 1 375.8189 527.6494)" class="st2 st3 st4">thursday</text>
<rect x="487.6" y="515.6" class="st1" width="159.6" height="31.6"/>
<text transform="matrix(1 0 0 1 487.5733 527.6494)" class="st2 st3 st4">friday</text>
<rect x="581.3" y="515.6" class="st1" width="159.6" height="31.6"/>
<text transform="matrix(1 0 0 1 581.2575 527.6494)" class="st2 st3 st4">saturday</text>
<rect x="689.5" y="515.6" class="st1" width="159.6" height="31.6"/>
<text transform="matrix(1 0 0 1 689.5031 527.6494)" class="st2 st3 st4">sunday</text>
<rect x="4.5" y="6" class="st1" width="45.6" height="42.1"/>
<text transform="matrix(1 0 0 1 4.4517 30.0061)" class="st2 st3 st5">12</text>
<rect x="7.1" y="47.7" class="st1" width="45.6" height="44.7"/>
<text transform="matrix(1 0 0 1 7.1483 71.6729)" class="st2 st3 st5">11</text>
<rect x="69.8" y="116.9" class="st1" width="50.5" height="39.8"/>
<rect x="0.9" y="89" class="st1" width="71" height="55.9"/>
<text transform="matrix(1 0 0 1 0.8999 112.9875)" class="st2 st3 st5">10</text>
<rect x="12.2" y="127.2" class="st1" width="55.9" height="59.2"/>
<text transform="matrix(1 0 0 1 12.202 151.1662)" class="st2 st3 st5">9</text>
<rect x="12.2" y="171.8" class="st1" width="43" height="36.6"/>
<text transform="matrix(1 0 0 1 12.2025 195.798)" class="st2 st3 st5">8</text>
<rect x="12.2" y="213.3" class="st1" width="72.1" height="53.8"/>
<text transform="matrix(1 0 0 1 12.2023 237.345)" class="st2 st3 st5">7</text>
<rect x="9.6" y="250.8" class="st1" width="73.1" height="76.4"/>
<text transform="matrix(1 0 0 1 9.6118 274.8436)" class="st2 st3 st5">6</text>
<rect x="13.3" y="292.9" class="st1" width="53.8" height="47.3"/>
<text transform="matrix(1 0 0 1 13.278 316.8667)" class="st2 st3 st5">5</text>
<rect x="12.3" y="333.1" class="st1" width="67.8" height="78.5"/>
<text transform="matrix(1 0 0 1 12.3002 357.1164)" class="st2 st3 st5">4</text>
<rect x="16.1" y="377.2" class="st1" width="51.6" height="47.3"/>
<text transform="matrix(1 0 0 1 16.0641 401.2099)" class="st2 st3 st5">3</text>
<rect x="14.8" y="413.8" class="st1" width="82.8" height="61.3"/>
<text transform="matrix(1 0 0 1 14.7911 437.7758)" class="st2 st3 st5">2</text>
<rect x="18.1" y="457.9" class="st1" width="60.2" height="68.8"/>
<text transform="matrix(1 0 0 1 18.1171 481.8694)" class="st2 st3 st5">1</text>
</svg>
